<svg xmlns="http://www.w3.org/2000/svg" xmlns:svg="http://www.w3.org/2000/svg" id="svg4" width="160" height="160" version="1.1" viewBox="0 0 16 16"><metadata id="metadata10"/><path id="path897" fill="#000" fill-opacity="1" d="m 4,5.626786 a 2,2 0 0 0 -2,2 v 6 H 1 a 1,1 0 0 0 0,2 h 14 a 1,1 0 0 0 0,-2 h -1 v -2.148438 a 6.7012768,6.7012768 0 0 1 -3.261719,0.857422 6.7012768,6.7012768 0 0 1 -6.7011716,-6.701171 6.7012768,6.7012768 0 0 1 0,-0.0078 z"/><path id="path817" fill="#000" fill-opacity="1" stroke-width=".658" d="M 10.73786,0.373214 A 5.260574,5.260574 0 1 0 15.998435,5.633788 5.2664921,5.2664921 0 0 0 10.73786,0.373214 Z m 0,9.206005 A 3.9454304,3.9454304 0 1 1 14.683291,5.633788 3.9500335,3.9500335 0 0 1 10.73786,9.579219 Z M 13.039363,5.633788 H 10.73786 V 3.332287 a 0.3287868,0.3287868 0 0 0 -0.657573,0 v 2.630287 a 0.32878587,0.32878587 0 0 0 0.32879,0.328785 h 2.630286 a 0.3287859,0.3287859 0 0 0 0,-0.657571 z"/></svg>