<svg xmlns="http://www.w3.org/2000/svg" xmlns:svg="http://www.w3.org/2000/svg" id="svg4" width="16" height="16" version="1.1" viewBox="0 0 16 16"><metadata id="metadata10"/><path id="path897" fill="#0c0c0d" fill-opacity=".8" d="m 4,5.6267862 a 2,2 0 0 0 -2,2 V 13.626786 H 1 a 1,1 0 0 0 0,2 h 14 a 1,1 0 0 0 0,-2 h -1 v -2.148438 a 6.7012768,6.7012768 0 0 1 -3.261719,0.857422 6.7012768,6.7012768 0 0 1 -6.7011716,-6.7011713 6.7012768,6.7012768 0 0 1 0,-0.00781 z"/><path id="path817" fill="#0c0c0d" fill-opacity=".8" stroke-width=".658" d="M 10.73786,0.37321376 A 5.260574,5.260574 0 1 0 15.998435,5.633788 5.2664921,5.2664921 0 0 0 10.73786,0.37321376 Z m 0,9.20600494 A 3.9454304,3.9454304 0 1 1 14.683291,5.633788 3.9500335,3.9500335 0 0 1 10.73786,9.5792187 Z M 13.039363,5.633788 H 10.73786 V 3.332287 a 0.3287868,0.3287868 0 0 0 -0.657573,0 v 2.6302866 a 0.32878587,0.32878587 0 0 0 0.32879,0.3287857 h 2.630286 a 0.3287859,0.3287859 0 0 0 0,-0.6575713 z"/></svg>